<svg id="hexagon" enable-background="new 0 0 300 300" height="512" viewBox="0 0 300 300" width="512" xmlns="http://www.w3.org/2000/svg" xmlns:xlink="http://www.w3.org/1999/xlink"><linearGradient id="SVGID_1_" gradientUnits="userSpaceOnUse" x1="57.907" x2="246.044" y1="228.361" y2="40.224"><stop offset="0" stop-color="#107eff"/><stop offset="1" stop-color="#8f16ff"/></linearGradient><g><path d="m234.735 35.532c-8.822 0-16 7.178-16 16s7.178 16 16 16 16-7.178 16-16-7.178-16-16-16zm0 24c-4.412 0-8-3.588-8-8s3.588-8 8-8 8 3.588 8 8-3.588 8-8 8zm-62.529-14c0-2.502 2.028-4.53 4.53-4.53s4.53 2.028 4.53 4.53c0 2.501-2.028 4.529-4.53 4.529s-4.53-2.027-4.53-4.529zm89.059 60c0 2.501-2.028 4.529-4.53 4.529s-4.53-2.028-4.53-4.529c0-2.502 2.028-4.53 4.53-4.53s4.53 2.029 4.53 4.53zm-40.522-5.459-88-51.064c-1.242-.723-2.773-.723-4.016 0l-88 51.064c-1.232.715-1.992 2.033-1.992 3.459v104c0 1.404.736 2.705 1.938 3.428l88 52.936c.635.381 1.35.572 2.062.572s1.428-.191 2.062-.572l88-52.936c1.201-.723 1.938-2.023 1.938-3.428v-104c0-1.426-.76-2.744-1.992-3.459zm-90.008-42.98 80.085 46.47-52.95 31.289-23.135-13.607v-21.713c0-2.209-1.791-4-4-4s-4 1.791-4 4v21.713l-26.027 15.309c-1.223.719-1.973 2.029-1.973 3.447v29.795l-52 30.727v-94.688zm0 198.707-80.189-48.237 51.467-30.412 24.723 14.539v19.842c0 2.209 1.791 4 4 4s4-1.791 4-4v-19.842l26.027-15.307c1.223-.719 1.973-2.029 1.973-3.447v-31.667l52-30.728v94.729z" fill="url(#SVGID_1_)"/></g></svg>