<?xml version="1.0" encoding="UTF-8" standalone="no"?>
<svg
   xmlns:dc="http://purl.org/dc/elements/1.1/"
   xmlns:cc="http://creativecommons.org/ns#"
   xmlns:rdf="http://www.w3.org/1999/02/22-rdf-syntax-ns#"
   xmlns:svg="http://www.w3.org/2000/svg"
   xmlns="http://www.w3.org/2000/svg"
   id="svg8"
   version="1.1"
   viewBox="0 0 42.333332 8.9958336"
   height="34"
   width="160">
  <defs
     id="defs2" />
  <metadata
     id="metadata5">
    <rdf:RDF>
      <cc:Work
         rdf:about="">
        <dc:format>image/svg+xml</dc:format>
        <dc:type
           rdf:resource="http://purl.org/dc/dcmitype/StillImage" />
        <dc:title></dc:title>
      </cc:Work>
    </rdf:RDF>
  </metadata>
  <g
     transform="translate(0,-288.00415)"
     id="layer1">
    <g
       id="flowRoot815"
       style="font-style:normal;font-weight:normal;font-size:42.66666794px;line-height:1.25;font-family:sans-serif;letter-spacing:0px;word-spacing:0px;fill:#000000;fill-opacity:1;stroke:none"
       transform="matrix(0.26458333,0,0,0.26458333,-15.024554,188.46837)"
       aria-label="Kaitech">
      <path
         id="path823"
         style="font-style:normal;font-variant:normal;font-weight:normal;font-stretch:normal;font-size:42.66666794px;font-family:'Red Hat Display';-inkscape-font-specification:'Red Hat Display';fill:#7159c1;fill-opacity:1"
         d="M 59.617245,409.25557 V 379.3889 h 7.338667 v 13.056 l 12.074667,-13.056 h 8.874667 l -13.824001,14.03733 14.592001,15.82934 h -9.728001 l -11.989333,-13.696 v 13.696 z" />
      <path
         id="path825"
         style="font-style:normal;font-variant:normal;font-weight:normal;font-stretch:normal;font-size:42.66666794px;font-family:'Red Hat Display';-inkscape-font-specification:'Red Hat Display';fill:#7159c1;fill-opacity:1"
         d="m 96.310473,409.63957 q -3.584,0 -5.888,-1.96267 -2.304,-1.96267 -2.304,-5.03467 0,-3.2 2.432,-4.992 2.474666,-1.792 6.869333,-1.792 1.322667,0 2.602664,0.17067 1.28,0.17067 2.51734,0.46933 v -1.10933 q 0,-1.70667 -1.10934,-2.51733 -1.06666,-0.85334 -3.199997,-0.85334 -1.322667,0 -2.986667,0.42667 -1.664,0.42667 -3.84,1.36533 l -2.474667,-5.07733 q 2.730667,-1.23733 5.333334,-1.83467 2.645333,-0.64 5.205333,-0.64 4.693334,0 7.296004,2.26134 2.60266,2.21866 2.60266,6.272 v 14.464 h -6.82666 v -1.36534 q -1.36534,0.93867 -2.901337,1.36534 -1.493333,0.384 -3.328,0.384 z m -1.621333,-7.12534 q 0,1.06667 0.938666,1.664 0.938667,0.59734 2.602667,0.59734 1.237333,0 2.303997,-0.256 1.10934,-0.256 2.00534,-0.81067 v -2.90133 q -0.98134,-0.256 -2.00534,-0.384 -1.023997,-0.128 -2.090664,-0.128 -1.792,0 -2.773333,0.59733 -0.981333,0.55467 -0.981333,1.62133 z" />
      <path
         id="path827"
         style="font-style:normal;font-variant:normal;font-weight:normal;font-stretch:normal;font-size:42.66666794px;font-family:'Red Hat Display';-inkscape-font-specification:'Red Hat Display';fill:#7159c1;fill-opacity:1"
         d="m 116.91844,384.59423 q -1.57867,0 -2.68801,-1.10933 -1.10933,-1.10933 -1.10933,-2.688 0,-1.57867 1.10933,-2.688 1.10934,-1.10933 2.68801,-1.10933 1.57866,0 2.688,1.10933 1.10933,1.10933 1.10933,2.688 0,1.57867 -1.10933,2.688 -1.10934,1.10933 -2.688,1.10933 z m 3.456,2.09067 v 22.57067 h -6.91201 V 386.6849 Z" />
      <path
         id="path829"
         style="font-style:normal;font-variant:normal;font-weight:normal;font-stretch:normal;font-size:42.66666794px;font-family:'Red Hat Display';-inkscape-font-specification:'Red Hat Display';fill:#7159c1;fill-opacity:1"
         d="m 127.84107,402.38623 v -9.94133 h -4.56533 v -5.76 h 4.56533 v -5.80267 l 6.912,-1.49333 v 7.296 h 6.31467 v 5.76 h -6.31467 v 8.576 q 0,1.49333 0.64,2.13333 0.68267,0.59734 2.34667,0.59734 0.81066,0 1.536,-0.0853 0.72533,-0.128 1.57866,-0.384 v 5.58934 q -0.93866,0.29866 -2.38933,0.46933 -1.45067,0.21333 -2.432,0.21333 -4.05333,0 -6.144,-1.792 -2.048,-1.83466 -2.048,-5.376 z" />
      <path
         id="path831"
         style="font-style:normal;font-variant:normal;font-weight:normal;font-stretch:normal;font-size:42.66666794px;font-family:'Red Hat Display';-inkscape-font-specification:'Red Hat Display';fill:#7159c1;fill-opacity:1"
         d="m 164.44907,406.2689 q -2.13334,1.792 -4.39467,2.60267 -2.21867,0.81066 -5.03467,0.81066 -2.56,0 -4.82133,-0.896 -2.26133,-0.896 -3.92533,-2.47466 -1.62134,-1.57867 -2.60267,-3.712 -0.93867,-2.176 -0.93867,-4.608 0,-2.432 0.896,-4.56534 0.93867,-2.176 2.51734,-3.75466 1.57866,-1.57867 3.712,-2.47467 2.176,-0.896 4.65066,-0.896 2.47467,0 4.56534,0.93867 2.09066,0.93866 3.584,2.56 1.536,1.62133 2.38933,3.92533 0.85333,2.26133 0.85333,4.90667 v 1.70666 H 149.8144 q 0.68267,1.57867 2.13333,2.60267 1.45067,0.98133 3.41334,0.98133 1.408,0 2.56,-0.42666 1.152,-0.46934 1.96266,-1.28 z m -10.06934,-14.336 q -1.70666,0 -2.944,0.93867 -1.23733,0.93866 -1.74933,2.64533 h 9.42933 q -0.55466,-1.62133 -1.83466,-2.60267 -1.23734,-0.98133 -2.90134,-0.98133 z" />
      <path
         id="path833"
         style="font-style:normal;font-variant:normal;font-weight:normal;font-stretch:normal;font-size:42.66666794px;font-family:'Red Hat Display';-inkscape-font-specification:'Red Hat Display';fill:#7159c1;fill-opacity:1"
         d="m 180.61967,403.7089 q 1.408,0 2.60267,-0.59733 1.19466,-0.59734 2.304,-1.83467 l 4.096,4.26667 q -1.70667,1.96266 -4.18134,3.072 -2.47466,1.06666 -5.16266,1.06666 -2.51734,0 -4.736,-0.896 -2.176,-0.896 -3.79734,-2.47466 -1.57866,-1.57867 -2.51733,-3.712 -0.896,-2.13334 -0.896,-4.608 0,-2.47467 0.896,-4.608 0.93867,-2.176 2.51733,-3.712 1.62134,-1.57867 3.79734,-2.47467 2.21866,-0.93867 4.736,-0.93867 2.77333,0 5.29066,1.10934 2.51734,1.10933 4.26667,3.072 l -4.224,4.39466 q -1.19467,-1.32266 -2.432,-1.96266 -1.23733,-0.64 -2.73067,-0.64 -2.21866,0 -3.75466,1.664 -1.49334,1.664 -1.49334,4.096 0,2.432 1.536,4.096 1.57867,1.62133 3.88267,1.62133 z" />
      <path
         id="path835"
         style="font-style:normal;font-variant:normal;font-weight:normal;font-stretch:normal;font-size:42.66666794px;font-family:'Red Hat Display';-inkscape-font-specification:'Red Hat Display';fill:#7159c1;fill-opacity:1"
         d="M 192.35298,409.25557 V 379.3889 l 6.912,-1.49333 v 10.32533 q 1.23734,-0.93867 2.77334,-1.45067 1.57866,-0.512 3.28533,-0.512 3.968,0 6.48533,2.56 2.51734,2.56 2.51734,6.528 v 13.90934 h -6.912 V 396.2849 q 0,-1.83467 -1.152,-2.944 -1.10934,-1.152 -2.944,-1.152 -1.32267,0 -2.34667,0.46933 -1.024,0.46934 -1.70667,1.32267 v 15.27467 z" />
    </g>
  </g>
</svg>
